<svg xmlns="http://www.w3.org/2000/svg" viewBox="0 0 240 80" width="960" height="320" shape-rendering="crispEdges">
<g fill="#12304A">
<rect x="0" y="0" width="240" height="1"/>
<rect x="0" y="1" width="32" height="1"/>
<rect x="44" y="1" width="38" height="1"/>
<rect x="95" y="1" width="38" height="1"/>
<rect x="145" y="1" width="38" height="1"/>
<rect x="195" y="1" width="38" height="1"/>
<rect x="7" y="2" width="12" height="1"/>
<rect x="57" y="2" width="13" height="1"/>
<rect x="107" y="2" width="13" height="1"/>
<rect x="158" y="2" width="12" height="1"/>
<rect x="208" y="2" width="12" height="1"/>
</g>
<g fill="#1A3A5C">
<rect x="32" y="1" width="12" height="1"/>
<rect x="82" y="1" width="13" height="1"/>
<rect x="133" y="1" width="12" height="1"/>
<rect x="183" y="1" width="12" height="1"/>
<rect x="233" y="1" width="7" height="1"/>
<rect x="0" y="2" width="7" height="1"/>
<rect x="19" y="2" width="13" height="1"/>
<rect x="44" y="2" width="13" height="1"/>
<rect x="70" y="2" width="12" height="1"/>
<rect x="95" y="2" width="12" height="1"/>
<rect x="120" y="2" width="13" height="1"/>
<rect x="145" y="2" width="13" height="1"/>
<rect x="170" y="2" width="13" height="1"/>
<rect x="195" y="2" width="13" height="1"/>
<rect x="220" y="2" width="13" height="1"/>
<rect x="7" y="3" width="12" height="1"/>
<rect x="57" y="3" width="13" height="1"/>
<rect x="107" y="3" width="13" height="1"/>
<rect x="158" y="3" width="12" height="1"/>
<rect x="208" y="3" width="12" height="1"/>
</g>
<g fill="#E8F4F2">
<rect x="32" y="2" width="12" height="1"/>
<rect x="82" y="2" width="13" height="1"/>
<rect x="133" y="2" width="12" height="1"/>
<rect x="183" y="2" width="12" height="1"/>
<rect x="233" y="2" width="7" height="1"/>
<rect x="0" y="3" width="7" height="1"/>
<rect x="19" y="3" width="13" height="1"/>
<rect x="44" y="3" width="13" height="1"/>
<rect x="70" y="3" width="12" height="1"/>
<rect x="95" y="3" width="12" height="1"/>
<rect x="120" y="3" width="13" height="1"/>
<rect x="145" y="3" width="13" height="1"/>
<rect x="170" y="3" width="13" height="1"/>
<rect x="195" y="3" width="13" height="1"/>
<rect x="220" y="3" width="13" height="1"/>
<rect x="7" y="4" width="12" height="1"/>
<rect x="57" y="4" width="13" height="1"/>
<rect x="107" y="4" width="13" height="1"/>
<rect x="158" y="4" width="12" height="1"/>
<rect x="208" y="4" width="12" height="1"/>
<rect x="33" y="18" width="1" height="1"/>
<rect x="30" y="22" width="1" height="1"/>
<rect x="31" y="26" width="1" height="1"/>
<rect x="29" y="30" width="1" height="1"/>
<rect x="90" y="50" width="3" height="1"/>
<rect x="94" y="50" width="1" height="4"/>
<rect x="98" y="50" width="1" height="4"/>
<rect x="101" y="50" width="4" height="1"/>
<rect x="106" y="50" width="5" height="1"/>
<rect x="119" y="50" width="3" height="1"/>
<rect x="130" y="50" width="5" height="1"/>
<rect x="137" y="50" width="3" height="1"/>
<rect x="143" y="50" width="4" height="1"/>
<rect x="148" y="50" width="1" height="2"/>
<rect x="152" y="50" width="1" height="2"/>
<rect x="92" y="51" width="1" height="3"/>
<rect x="100" y="51" width="1" height="1"/>
<rect x="108" y="51" width="1" height="4"/>
<rect x="118" y="51" width="1" height="1"/>
<rect x="122" y="51" width="1" height="1"/>
<rect x="130" y="51" width="1" height="1"/>
<rect x="138" y="51" width="1" height="3"/>
<rect x="142" y="51" width="1" height="1"/>
<rect x="101" y="52" width="3" height="1"/>
<rect x="118" y="52" width="5" height="1"/>
<rect x="130" y="52" width="4" height="1"/>
<rect x="143" y="52" width="3" height="1"/>
<rect x="148" y="52" width="5" height="1"/>
<rect x="88" y="53" width="1" height="1"/>
<rect x="104" y="53" width="1" height="1"/>
<rect x="118" y="53" width="1" height="2"/>
<rect x="122" y="53" width="1" height="2"/>
<rect x="130" y="53" width="1" height="2"/>
<rect x="146" y="53" width="1" height="1"/>
<rect x="148" y="53" width="1" height="2"/>
<rect x="152" y="53" width="1" height="2"/>
<rect x="66" y="54" width="1" height="1"/>
<rect x="72" y="54" width="1" height="1"/>
<rect x="78" y="54" width="1" height="1"/>
<rect x="89" y="54" width="3" height="1"/>
<rect x="95" y="54" width="3" height="1"/>
<rect x="100" y="54" width="4" height="1"/>
<rect x="137" y="54" width="3" height="1"/>
<rect x="142" y="54" width="4" height="1"/>
<rect x="162" y="54" width="1" height="1"/>
<rect x="168" y="54" width="1" height="1"/>
<rect x="174" y="54" width="1" height="1"/>
</g>
<g fill="#0B1426">
<rect x="32" y="3" width="12" height="1"/>
<rect x="82" y="3" width="13" height="1"/>
<rect x="133" y="3" width="12" height="1"/>
<rect x="183" y="3" width="12" height="1"/>
<rect x="233" y="3" width="7" height="1"/>
<rect x="0" y="4" width="7" height="1"/>
<rect x="19" y="4" width="38" height="1"/>
<rect x="70" y="4" width="37" height="1"/>
<rect x="120" y="4" width="38" height="1"/>
<rect x="170" y="4" width="38" height="1"/>
<rect x="220" y="4" width="20" height="1"/>
<rect x="0" y="5" width="240" height="13"/>
<rect x="0" y="18" width="33" height="1"/>
<rect x="34" y="18" width="136" height="1"/>
<rect x="173" y="18" width="67" height="1"/>
<rect x="0" y="19" width="74" height="1"/>
<rect x="77" y="19" width="109" height="1"/>
<rect x="189" y="19" width="51" height="1"/>
<rect x="0" y="20" width="58" height="1"/>
<rect x="61" y="20" width="179" height="1"/>
<rect x="0" y="21" width="178" height="1"/>
<rect x="181" y="21" width="59" height="1"/>
<rect x="0" y="22" width="30" height="1"/>
<rect x="31" y="22" width="35" height="1"/>
<rect x="69" y="22" width="171" height="1"/>
<rect x="0" y="23" width="240" height="3"/>
<rect x="0" y="26" width="31" height="1"/>
<rect x="32" y="26" width="49" height="1"/>
<rect x="93" y="26" width="5" height="3"/>
<rect x="107" y="26" width="5" height="3"/>
<rect x="115" y="26" width="9" height="3"/>
<rect x="127" y="26" width="5" height="3"/>
<rect x="141" y="26" width="5" height="3"/>
<rect x="149" y="26" width="9" height="3"/>
<rect x="161" y="26" width="5" height="3"/>
<rect x="175" y="26" width="65" height="3"/>
<rect x="0" y="27" width="81" height="2"/>
<rect x="0" y="29" width="78" height="1"/>
<rect x="81" y="29" width="14" height="3"/>
<rect x="98" y="29" width="9" height="3"/>
<rect x="110" y="29" width="2" height="12"/>
<rect x="115" y="29" width="6" height="3"/>
<rect x="124" y="29" width="5" height="3"/>
<rect x="132" y="29" width="9" height="3"/>
<rect x="144" y="29" width="2" height="12"/>
<rect x="152" y="29" width="6" height="3"/>
<rect x="161" y="29" width="2" height="12"/>
<rect x="166" y="29" width="9" height="3"/>
<rect x="178" y="29" width="62" height="12"/>
<rect x="0" y="30" width="29" height="1"/>
<rect x="30" y="30" width="48" height="1"/>
<rect x="0" y="31" width="78" height="1"/>
<rect x="0" y="32" width="8" height="10"/>
<rect x="10" y="32" width="71" height="1"/>
<rect x="90" y="32" width="5" height="3"/>
<rect x="121" y="32" width="8" height="3"/>
<rect x="149" y="32" width="3" height="3"/>
<rect x="155" y="32" width="3" height="3"/>
<rect x="12" y="33" width="8" height="1"/>
<rect x="24" y="33" width="57" height="1"/>
<rect x="14" y="34" width="4" height="1"/>
<rect x="26" y="34" width="55" height="1"/>
<rect x="27" y="35" width="63" height="1"/>
<rect x="93" y="35" width="2" height="3"/>
<rect x="98" y="35" width="9" height="6"/>
<rect x="115" y="35" width="6" height="3"/>
<rect x="124" y="35" width="5" height="3"/>
<rect x="132" y="35" width="9" height="6"/>
<rect x="149" y="35" width="6" height="3"/>
<rect x="166" y="35" width="9" height="6"/>
<rect x="28" y="36" width="62" height="1"/>
<rect x="27" y="37" width="63" height="1"/>
<rect x="27" y="38" width="51" height="1"/>
<rect x="90" y="38" width="5" height="3"/>
<rect x="115" y="38" width="9" height="3"/>
<rect x="127" y="38" width="2" height="3"/>
<rect x="149" y="38" width="9" height="3"/>
<rect x="14" y="39" width="4" height="1"/>
<rect x="26" y="39" width="52" height="1"/>
<rect x="12" y="40" width="8" height="1"/>
<rect x="24" y="40" width="54" height="1"/>
<rect x="10" y="41" width="230" height="1"/>
<rect x="0" y="42" width="240" height="8"/>
<rect x="0" y="50" width="90" height="1"/>
<rect x="93" y="50" width="1" height="4"/>
<rect x="95" y="50" width="3" height="4"/>
<rect x="99" y="50" width="2" height="1"/>
<rect x="105" y="50" width="1" height="1"/>
<rect x="111" y="50" width="8" height="1"/>
<rect x="122" y="50" width="8" height="1"/>
<rect x="135" y="50" width="2" height="1"/>
<rect x="140" y="50" width="3" height="1"/>
<rect x="147" y="50" width="1" height="1"/>
<rect x="149" y="50" width="3" height="2"/>
<rect x="153" y="50" width="87" height="4"/>
<rect x="0" y="51" width="92" height="2"/>
<rect x="99" y="51" width="1" height="1"/>
<rect x="101" y="51" width="7" height="1"/>
<rect x="109" y="51" width="9" height="4"/>
<rect x="119" y="51" width="3" height="1"/>
<rect x="123" y="51" width="7" height="4"/>
<rect x="131" y="51" width="7" height="1"/>
<rect x="139" y="51" width="3" height="1"/>
<rect x="143" y="51" width="5" height="1"/>
<rect x="99" y="52" width="2" height="1"/>
<rect x="104" y="52" width="4" height="1"/>
<rect x="134" y="52" width="4" height="1"/>
<rect x="139" y="52" width="4" height="1"/>
<rect x="146" y="52" width="2" height="1"/>
<rect x="0" y="53" width="88" height="1"/>
<rect x="89" y="53" width="3" height="1"/>
<rect x="99" y="53" width="5" height="1"/>
<rect x="105" y="53" width="3" height="1"/>
<rect x="119" y="53" width="3" height="2"/>
<rect x="131" y="53" width="7" height="1"/>
<rect x="139" y="53" width="7" height="1"/>
<rect x="147" y="53" width="1" height="1"/>
<rect x="149" y="53" width="3" height="2"/>
<rect x="0" y="54" width="66" height="1"/>
<rect x="67" y="54" width="5" height="1"/>
<rect x="73" y="54" width="5" height="1"/>
<rect x="79" y="54" width="10" height="1"/>
<rect x="92" y="54" width="3" height="1"/>
<rect x="98" y="54" width="2" height="1"/>
<rect x="104" y="54" width="4" height="1"/>
<rect x="131" y="54" width="6" height="1"/>
<rect x="140" y="54" width="2" height="1"/>
<rect x="146" y="54" width="2" height="1"/>
<rect x="153" y="54" width="9" height="1"/>
<rect x="163" y="54" width="5" height="1"/>
<rect x="169" y="54" width="5" height="1"/>
<rect x="175" y="54" width="65" height="1"/>
<rect x="0" y="55" width="240" height="1"/>
</g>
<g fill="#102038">
<rect x="170" y="18" width="3" height="1"/>
<rect x="74" y="19" width="3" height="1"/>
<rect x="186" y="19" width="3" height="1"/>
<rect x="58" y="20" width="3" height="1"/>
<rect x="178" y="21" width="3" height="1"/>
<rect x="66" y="22" width="3" height="1"/>
</g>
<g fill="#FF8FB8">
<rect x="81" y="26" width="12" height="3"/>
<rect x="98" y="26" width="9" height="3"/>
<rect x="112" y="26" width="3" height="6"/>
<rect x="124" y="26" width="3" height="3"/>
<rect x="132" y="26" width="9" height="3"/>
<rect x="146" y="26" width="3" height="3"/>
<rect x="158" y="26" width="3" height="9"/>
<rect x="166" y="26" width="9" height="3"/>
<rect x="78" y="29" width="3" height="3"/>
<rect x="95" y="29" width="3" height="3"/>
<rect x="107" y="29" width="3" height="3"/>
<rect x="121" y="29" width="3" height="3"/>
<rect x="129" y="29" width="3" height="3"/>
<rect x="141" y="29" width="3" height="3"/>
<rect x="146" y="29" width="6" height="3"/>
<rect x="163" y="29" width="3" height="3"/>
<rect x="175" y="29" width="3" height="3"/>
<rect x="81" y="32" width="9" height="3"/>
<rect x="95" y="32" width="15" height="3"/>
<rect x="112" y="32" width="9" height="3"/>
<rect x="129" y="32" width="15" height="3"/>
<rect x="146" y="32" width="3" height="9"/>
<rect x="152" y="32" width="3" height="3"/>
<rect x="163" y="32" width="15" height="3"/>
<rect x="8" y="33" width="2" height="1"/>
<rect x="8" y="34" width="4" height="1"/>
<rect x="20" y="34" width="4" height="1"/>
<rect x="9" y="35" width="5" height="1"/>
<rect x="18" y="35" width="4" height="1"/>
<rect x="23" y="35" width="3" height="1"/>
<rect x="90" y="35" width="3" height="3"/>
<rect x="95" y="35" width="3" height="6"/>
<rect x="107" y="35" width="3" height="6"/>
<rect x="112" y="35" width="3" height="6"/>
<rect x="121" y="35" width="3" height="3"/>
<rect x="129" y="35" width="3" height="6"/>
<rect x="141" y="35" width="3" height="6"/>
<rect x="155" y="35" width="6" height="3"/>
<rect x="163" y="35" width="3" height="6"/>
<rect x="175" y="35" width="3" height="6"/>
<rect x="10" y="36" width="16" height="1"/>
<rect x="9" y="37" width="13" height="1"/>
<rect x="23" y="37" width="3" height="1"/>
<rect x="10" y="38" width="4" height="1"/>
<rect x="18" y="38" width="7" height="1"/>
<rect x="78" y="38" width="12" height="3"/>
<rect x="124" y="38" width="3" height="3"/>
<rect x="158" y="38" width="3" height="3"/>
<rect x="8" y="39" width="4" height="1"/>
<rect x="20" y="39" width="4" height="1"/>
<rect x="8" y="40" width="2" height="1"/>
<rect x="200" y="66" width="1" height="2"/>
<rect x="198" y="67" width="1" height="1"/>
<rect x="202" y="67" width="1" height="1"/>
<rect x="199" y="68" width="3" height="1"/>
<rect x="198" y="69" width="1" height="1"/>
<rect x="200" y="69" width="1" height="2"/>
<rect x="202" y="69" width="1" height="1"/>
</g>
<g fill="#E05A8A">
<rect x="8" y="32" width="2" height="1"/>
<rect x="10" y="33" width="2" height="1"/>
<rect x="20" y="33" width="4" height="1"/>
<rect x="12" y="34" width="2" height="1"/>
<rect x="18" y="34" width="2" height="1"/>
<rect x="24" y="34" width="2" height="1"/>
<rect x="8" y="35" width="1" height="1"/>
<rect x="14" y="35" width="4" height="1"/>
<rect x="26" y="35" width="1" height="1"/>
<rect x="8" y="36" width="2" height="1"/>
<rect x="26" y="36" width="2" height="1"/>
<rect x="8" y="37" width="1" height="1"/>
<rect x="26" y="37" width="1" height="1"/>
<rect x="8" y="38" width="2" height="1"/>
<rect x="14" y="38" width="4" height="1"/>
<rect x="25" y="38" width="2" height="1"/>
<rect x="12" y="39" width="2" height="1"/>
<rect x="18" y="39" width="2" height="1"/>
<rect x="24" y="39" width="2" height="1"/>
<rect x="10" y="40" width="2" height="1"/>
<rect x="20" y="40" width="4" height="1"/>
<rect x="8" y="41" width="2" height="1"/>
</g>
<g fill="#FFC4D6">
<rect x="22" y="35" width="1" height="1"/>
<rect x="22" y="37" width="1" height="1"/>
</g>
<g fill="#07101C">
<rect x="0" y="56" width="240" height="3"/>
<rect x="0" y="59" width="9" height="2"/>
<rect x="11" y="59" width="229" height="1"/>
<rect x="11" y="60" width="204" height="1"/>
<rect x="217" y="60" width="23" height="1"/>
<rect x="0" y="61" width="8" height="2"/>
<rect x="10" y="61" width="204" height="2"/>
<rect x="216" y="61" width="24" height="2"/>
<rect x="0" y="63" width="9" height="2"/>
<rect x="11" y="63" width="10" height="2"/>
<rect x="23" y="63" width="192" height="2"/>
<rect x="217" y="63" width="23" height="1"/>
<rect x="217" y="64" width="12" height="1"/>
<rect x="231" y="64" width="9" height="1"/>
<rect x="0" y="65" width="8" height="2"/>
<rect x="10" y="65" width="10" height="2"/>
<rect x="22" y="65" width="192" height="1"/>
<rect x="216" y="65" width="12" height="2"/>
<rect x="230" y="65" width="10" height="2"/>
<rect x="22" y="66" width="178" height="1"/>
<rect x="201" y="66" width="13" height="1"/>
<rect x="0" y="67" width="9" height="2"/>
<rect x="11" y="67" width="10" height="2"/>
<rect x="23" y="67" width="175" height="1"/>
<rect x="199" y="67" width="1" height="1"/>
<rect x="201" y="67" width="1" height="1"/>
<rect x="203" y="67" width="12" height="1"/>
<rect x="217" y="67" width="12" height="2"/>
<rect x="231" y="67" width="9" height="2"/>
<rect x="23" y="68" width="176" height="1"/>
<rect x="202" y="68" width="13" height="1"/>
<rect x="0" y="69" width="8" height="2"/>
<rect x="10" y="69" width="10" height="2"/>
<rect x="22" y="69" width="176" height="1"/>
<rect x="199" y="69" width="1" height="1"/>
<rect x="201" y="69" width="1" height="1"/>
<rect x="203" y="69" width="11" height="1"/>
<rect x="216" y="69" width="8" height="1"/>
<rect x="225" y="69" width="3" height="1"/>
<rect x="230" y="69" width="10" height="2"/>
<rect x="22" y="70" width="178" height="1"/>
<rect x="201" y="70" width="13" height="1"/>
<rect x="216" y="70" width="5" height="1"/>
<rect x="0" y="71" width="9" height="1"/>
<rect x="11" y="71" width="9" height="1"/>
<rect x="23" y="71" width="182" height="1"/>
<rect x="206" y="71" width="9" height="1"/>
<rect x="217" y="71" width="3" height="1"/>
<rect x="231" y="71" width="9" height="1"/>
<rect x="16" y="72" width="1" height="1"/>
<rect x="24" y="72" width="8" height="1"/>
<rect x="48" y="72" width="16" height="1"/>
<rect x="80" y="72" width="16" height="1"/>
<rect x="112" y="72" width="16" height="1"/>
<rect x="144" y="72" width="16" height="1"/>
<rect x="176" y="72" width="16" height="1"/>
<rect x="209" y="72" width="6" height="1"/>
<rect x="217" y="72" width="2" height="1"/>
</g>
<g fill="#123F3F">
<rect x="9" y="59" width="2" height="1"/>
<rect x="10" y="60" width="1" height="1"/>
<rect x="216" y="60" width="1" height="1"/>
<rect x="8" y="61" width="2" height="1"/>
<rect x="214" y="61" width="2" height="1"/>
<rect x="9" y="62" width="1" height="1"/>
<rect x="215" y="62" width="1" height="1"/>
<rect x="9" y="63" width="2" height="1"/>
<rect x="21" y="63" width="2" height="1"/>
<rect x="215" y="63" width="2" height="1"/>
<rect x="10" y="64" width="1" height="1"/>
<rect x="22" y="64" width="1" height="1"/>
<rect x="216" y="64" width="1" height="1"/>
<rect x="230" y="64" width="1" height="1"/>
<rect x="8" y="65" width="2" height="1"/>
<rect x="20" y="65" width="2" height="1"/>
<rect x="214" y="65" width="2" height="1"/>
<rect x="228" y="65" width="2" height="1"/>
<rect x="9" y="66" width="1" height="1"/>
<rect x="21" y="66" width="1" height="1"/>
<rect x="215" y="66" width="1" height="1"/>
<rect x="229" y="66" width="1" height="1"/>
<rect x="9" y="67" width="2" height="1"/>
<rect x="21" y="67" width="2" height="1"/>
<rect x="215" y="67" width="2" height="1"/>
<rect x="229" y="67" width="2" height="1"/>
<rect x="10" y="68" width="1" height="1"/>
<rect x="22" y="68" width="1" height="1"/>
<rect x="216" y="68" width="1" height="1"/>
<rect x="230" y="68" width="1" height="1"/>
<rect x="8" y="69" width="2" height="1"/>
<rect x="20" y="69" width="2" height="1"/>
<rect x="214" y="69" width="2" height="1"/>
<rect x="228" y="69" width="2" height="1"/>
<rect x="9" y="70" width="1" height="1"/>
<rect x="21" y="70" width="1" height="1"/>
<rect x="215" y="70" width="1" height="1"/>
<rect x="229" y="70" width="1" height="1"/>
<rect x="9" y="71" width="2" height="1"/>
<rect x="21" y="71" width="2" height="1"/>
<rect x="215" y="71" width="2" height="1"/>
<rect x="229" y="71" width="2" height="1"/>
<rect x="10" y="72" width="1" height="1"/>
<rect x="22" y="72" width="1" height="1"/>
<rect x="216" y="72" width="1" height="1"/>
<rect x="230" y="72" width="1" height="1"/>
</g>
<g fill="#1B6B6B">
<rect x="9" y="60" width="1" height="1"/>
<rect x="215" y="60" width="1" height="1"/>
<rect x="8" y="62" width="1" height="1"/>
<rect x="214" y="62" width="1" height="1"/>
<rect x="9" y="64" width="1" height="1"/>
<rect x="21" y="64" width="1" height="1"/>
<rect x="215" y="64" width="1" height="1"/>
<rect x="229" y="64" width="1" height="1"/>
<rect x="8" y="66" width="1" height="1"/>
<rect x="20" y="66" width="1" height="1"/>
<rect x="214" y="66" width="1" height="1"/>
<rect x="228" y="66" width="1" height="1"/>
<rect x="9" y="68" width="1" height="1"/>
<rect x="21" y="68" width="1" height="1"/>
<rect x="215" y="68" width="1" height="1"/>
<rect x="229" y="68" width="1" height="1"/>
<rect x="8" y="70" width="1" height="1"/>
<rect x="20" y="70" width="1" height="1"/>
<rect x="214" y="70" width="1" height="1"/>
<rect x="228" y="70" width="1" height="1"/>
<rect x="9" y="72" width="1" height="1"/>
<rect x="21" y="72" width="1" height="1"/>
<rect x="215" y="72" width="1" height="1"/>
<rect x="229" y="72" width="1" height="1"/>
</g>
<g fill="#16283F">
<rect x="224" y="69" width="1" height="1"/>
<rect x="221" y="70" width="7" height="1"/>
<rect x="20" y="71" width="1" height="1"/>
<rect x="205" y="71" width="1" height="1"/>
<rect x="220" y="71" width="9" height="1"/>
<rect x="17" y="72" width="4" height="1"/>
<rect x="23" y="72" width="1" height="1"/>
<rect x="202" y="72" width="7" height="1"/>
<rect x="219" y="72" width="10" height="1"/>
<rect x="16" y="73" width="9" height="3"/>
<rect x="38" y="73" width="1" height="1"/>
<rect x="201" y="73" width="9" height="3"/>
<rect x="219" y="73" width="11" height="2"/>
<rect x="36" y="74" width="5" height="1"/>
<rect x="35" y="75" width="7" height="2"/>
<rect x="218" y="75" width="12" height="1"/>
<rect x="15" y="76" width="10" height="1"/>
<rect x="200" y="76" width="10" height="1"/>
<rect x="219" y="76" width="11" height="1"/>
<rect x="16" y="77" width="9" height="1"/>
<rect x="34" y="77" width="8" height="1"/>
<rect x="201" y="77" width="9" height="1"/>
<rect x="35" y="78" width="7" height="1"/>
</g>
<g fill="#0E1C30">
<rect x="0" y="72" width="9" height="1"/>
<rect x="11" y="72" width="5" height="1"/>
<rect x="32" y="72" width="16" height="1"/>
<rect x="64" y="72" width="16" height="1"/>
<rect x="96" y="72" width="16" height="1"/>
<rect x="128" y="72" width="16" height="1"/>
<rect x="160" y="72" width="16" height="1"/>
<rect x="192" y="72" width="10" height="1"/>
<rect x="231" y="72" width="9" height="1"/>
<rect x="0" y="73" width="16" height="3"/>
<rect x="25" y="73" width="13" height="1"/>
<rect x="39" y="73" width="162" height="1"/>
<rect x="210" y="73" width="9" height="2"/>
<rect x="230" y="73" width="10" height="4"/>
<rect x="25" y="74" width="11" height="1"/>
<rect x="41" y="74" width="160" height="1"/>
<rect x="25" y="75" width="10" height="2"/>
<rect x="42" y="75" width="159" height="1"/>
<rect x="210" y="75" width="8" height="1"/>
<rect x="0" y="76" width="15" height="1"/>
<rect x="42" y="76" width="158" height="1"/>
<rect x="210" y="76" width="9" height="1"/>
<rect x="0" y="77" width="16" height="1"/>
<rect x="25" y="77" width="9" height="1"/>
<rect x="42" y="77" width="159" height="1"/>
<rect x="210" y="77" width="30" height="1"/>
<rect x="0" y="78" width="35" height="1"/>
<rect x="42" y="78" width="198" height="1"/>
<rect x="0" y="79" width="240" height="1"/>
</g>
</svg>