<svg xmlns="http://www.w3.org/2000/svg" viewBox="0 0 194 20" width="582" height="60" shape-rendering="crispEdges">
<g fill="#E05A8A">
<rect x="0" y="0" width="194" height="1"/>
<rect x="4" y="8" width="1" height="1"/>
<rect x="7" y="8" width="1" height="1"/>
<rect x="4" y="10" width="1" height="1"/>
<rect x="7" y="10" width="1" height="1"/>
<rect x="0" y="19" width="194" height="1"/>
</g>
<g fill="#0B1426">
<rect x="0" y="1" width="194" height="4"/>
<rect x="0" y="5" width="18" height="2"/>
<rect x="24" y="5" width="4" height="2"/>
<rect x="30" y="5" width="6" height="2"/>
<rect x="38" y="5" width="14" height="2"/>
<rect x="62" y="5" width="2" height="2"/>
<rect x="66" y="5" width="6" height="4"/>
<rect x="74" y="5" width="2" height="10"/>
<rect x="86" y="5" width="16" height="2"/>
<rect x="110" y="5" width="2" height="2"/>
<rect x="114" y="5" width="6" height="8"/>
<rect x="122" y="5" width="2" height="8"/>
<rect x="132" y="5" width="4" height="2"/>
<rect x="146" y="5" width="4" height="2"/>
<rect x="156" y="5" width="6" height="2"/>
<rect x="170" y="5" width="2" height="2"/>
<rect x="182" y="5" width="12" height="2"/>
<rect x="0" y="7" width="16" height="1"/>
<rect x="18" y="7" width="6" height="6"/>
<rect x="26" y="7" width="2" height="6"/>
<rect x="32" y="7" width="4" height="2"/>
<rect x="38" y="7" width="18" height="8"/>
<rect x="58" y="7" width="6" height="8"/>
<rect x="78" y="7" width="22" height="2"/>
<rect x="102" y="7" width="10" height="2"/>
<rect x="126" y="7" width="6" height="2"/>
<rect x="134" y="7" width="2" height="2"/>
<rect x="138" y="7" width="10" height="2"/>
<rect x="150" y="7" width="6" height="2"/>
<rect x="158" y="7" width="2" height="6"/>
<rect x="162" y="7" width="10" height="6"/>
<rect x="174" y="7" width="20" height="2"/>
<rect x="0" y="8" width="4" height="3"/>
<rect x="8" y="8" width="8" height="3"/>
<rect x="30" y="9" width="2" height="2"/>
<rect x="34" y="9" width="2" height="2"/>
<rect x="84" y="9" width="18" height="2"/>
<rect x="108" y="9" width="4" height="2"/>
<rect x="132" y="9" width="4" height="4"/>
<rect x="144" y="9" width="4" height="2"/>
<rect x="180" y="9" width="14" height="2"/>
<rect x="0" y="11" width="16" height="2"/>
<rect x="30" y="11" width="4" height="2"/>
<rect x="66" y="11" width="6" height="4"/>
<rect x="78" y="11" width="30" height="2"/>
<rect x="110" y="11" width="2" height="2"/>
<rect x="126" y="11" width="4" height="2"/>
<rect x="138" y="11" width="10" height="4"/>
<rect x="150" y="11" width="6" height="4"/>
<rect x="174" y="11" width="20" height="2"/>
<rect x="0" y="13" width="18" height="2"/>
<rect x="24" y="13" width="4" height="2"/>
<rect x="30" y="13" width="6" height="2"/>
<rect x="86" y="13" width="14" height="2"/>
<rect x="108" y="13" width="6" height="2"/>
<rect x="120" y="13" width="4" height="2"/>
<rect x="126" y="13" width="6" height="2"/>
<rect x="134" y="13" width="2" height="2"/>
<rect x="158" y="13" width="4" height="2"/>
<rect x="170" y="13" width="2" height="2"/>
<rect x="182" y="13" width="12" height="2"/>
<rect x="0" y="15" width="194" height="4"/>
</g>
<g fill="#FF8FB8">
<rect x="18" y="5" width="6" height="2"/>
<rect x="28" y="5" width="2" height="2"/>
<rect x="36" y="5" width="2" height="6"/>
<rect x="52" y="5" width="10" height="2"/>
<rect x="64" y="5" width="2" height="4"/>
<rect x="72" y="5" width="2" height="4"/>
<rect x="76" y="5" width="10" height="2"/>
<rect x="102" y="5" width="8" height="2"/>
<rect x="112" y="5" width="2" height="8"/>
<rect x="120" y="5" width="2" height="8"/>
<rect x="124" y="5" width="8" height="2"/>
<rect x="136" y="5" width="10" height="2"/>
<rect x="150" y="5" width="6" height="2"/>
<rect x="162" y="5" width="8" height="2"/>
<rect x="172" y="5" width="10" height="2"/>
<rect x="16" y="7" width="2" height="6"/>
<rect x="24" y="7" width="2" height="6"/>
<rect x="28" y="7" width="4" height="2"/>
<rect x="56" y="7" width="2" height="8"/>
<rect x="76" y="7" width="2" height="2"/>
<rect x="100" y="7" width="2" height="2"/>
<rect x="124" y="7" width="2" height="2"/>
<rect x="132" y="7" width="2" height="2"/>
<rect x="136" y="7" width="2" height="2"/>
<rect x="148" y="7" width="2" height="2"/>
<rect x="156" y="7" width="2" height="2"/>
<rect x="160" y="7" width="2" height="6"/>
<rect x="172" y="7" width="2" height="2"/>
<rect x="5" y="8" width="2" height="1"/>
<rect x="4" y="9" width="3" height="1"/>
<rect x="28" y="9" width="2" height="6"/>
<rect x="32" y="9" width="2" height="2"/>
<rect x="64" y="9" width="10" height="2"/>
<rect x="76" y="9" width="8" height="2"/>
<rect x="102" y="9" width="6" height="2"/>
<rect x="124" y="9" width="8" height="2"/>
<rect x="136" y="9" width="8" height="2"/>
<rect x="148" y="9" width="10" height="2"/>
<rect x="172" y="9" width="8" height="2"/>
<rect x="5" y="10" width="2" height="1"/>
<rect x="34" y="11" width="4" height="2"/>
<rect x="64" y="11" width="2" height="4"/>
<rect x="72" y="11" width="2" height="4"/>
<rect x="76" y="11" width="2" height="2"/>
<rect x="108" y="11" width="2" height="2"/>
<rect x="124" y="11" width="2" height="4"/>
<rect x="130" y="11" width="2" height="2"/>
<rect x="136" y="11" width="2" height="4"/>
<rect x="148" y="11" width="2" height="4"/>
<rect x="156" y="11" width="2" height="4"/>
<rect x="172" y="11" width="2" height="2"/>
<rect x="18" y="13" width="6" height="2"/>
<rect x="36" y="13" width="2" height="2"/>
<rect x="76" y="13" width="10" height="2"/>
<rect x="100" y="13" width="8" height="2"/>
<rect x="114" y="13" width="6" height="2"/>
<rect x="132" y="13" width="2" height="2"/>
<rect x="162" y="13" width="8" height="2"/>
<rect x="172" y="13" width="10" height="2"/>
</g>
<g fill="#E8F4F2">
<rect x="7" y="9" width="1" height="1"/>
</g>
</svg>